# xmcd
#
# Track frame offsets: 
#        150
#        28790
#        49627
#        80215
#        103537
#        128322
#        141235
#        165730
#        188345
#        207215
#        225147
#
# Disc length: 3260 seconds
#
# Revision: 27
# Processed by: cddbd v1.5.2PL0 Copyright (c) Steve Scherf et al.
# Submitted via: ExactAudioCopyFreeDBPlugin 1.0
#
DISCID=810cba0b
DTITLE=Sade - Promise
DYEAR=1985
DGENRE=Jazz
TTITLE0=Is It A Crime
TTITLE1=The Sweetest Taboo
TTITLE2=War Of The Hearts
TTITLE3=You're Not The Man
TTITLE4=Jezebel
TTITLE5=Mr Wrong
TTITLE6=Punch Drunk
TTITLE7=Never As Good As The First Time
TTITLE8=Fear
TTITLE9=Tar Baby
TTITLE10=Maureen
EXTD=YEAR: 1985
EXTT0=
EXTT1=
EXTT2=
EXTT3=
EXTT4=
EXTT5=
EXTT6=
EXTT7=
EXTT8=
EXTT9=
EXTT10=
PLAYORDER=
